<?xml version="1.0" encoding="UTF-8" standalone="no"?>
<!-- Created with Inkscape (http://www.inkscape.org/) -->
<svg
   xmlns:dc="http://purl.org/dc/elements/1.1/"
   xmlns:cc="http://creativecommons.org/ns#"
   xmlns:rdf="http://www.w3.org/1999/02/22-rdf-syntax-ns#"
   xmlns:svg="http://www.w3.org/2000/svg"
   xmlns="http://www.w3.org/2000/svg"
   xmlns:xlink="http://www.w3.org/1999/xlink"
   xmlns:sodipodi="http://sodipodi.sourceforge.net/DTD/sodipodi-0.dtd"
   xmlns:inkscape="http://www.inkscape.org/namespaces/inkscape"
   width="744.09448819"
   height="1052.3622047"
   id="svg3369"
   sodipodi:version="0.32"
   inkscape:version="0.46"
   sodipodi:docname="cutscene.svg"
   inkscape:output_extension="org.inkscape.output.svg.inkscape">
  <defs
     id="defs3371">
    <filter
       inkscape:collect="always"
       id="filter4025"
       x="-0.31256374"
       width="1.6251275"
       y="-0.3373704"
       height="1.6747408">
      <feGaussianBlur
         inkscape:collect="always"
         stdDeviation="6.3256949"
         id="feGaussianBlur4027" />
    </filter>
    <filter
       inkscape:collect="always"
       id="filter4236"
       x="-0.25645161"
       width="1.5129032"
       y="-0.25645161"
       height="1.5129032">
      <feGaussianBlur
         inkscape:collect="always"
         stdDeviation="0.76324884"
         id="feGaussianBlur4238" />
    </filter>
    <filter
       inkscape:collect="always"
       id="filter4379"
       x="-0.12010897"
       width="1.2402179"
       y="-0.15537282"
       height="1.3107456">
      <feGaussianBlur
         inkscape:collect="always"
         stdDeviation="0.68050183"
         id="feGaussianBlur4381" />
    </filter>
    <linearGradient
       id="linearGradient4258">
      <stop
         style="stop-color:#000000;stop-opacity:0;"
         offset="0"
         id="stop4260" />
      <stop
         style="stop-color:#000000;stop-opacity:0.08196721;"
         offset="1"
         id="stop4262" />
    </linearGradient>
    <radialGradient
       inkscape:collect="always"
       xlink:href="#linearGradient4258"
       id="radialGradient4266"
       cx="170.8533"
       cy="459.78589"
       fx="170.8533"
       fy="459.78589"
       r="10.535714"
       gradientTransform="matrix(1.3273844,-0.2043274,0.511166,1.0389095,-340.80693,164.94276)"
       gradientUnits="userSpaceOnUse" />
    <inkscape:perspective
       sodipodi:type="inkscape:persp3d"
       inkscape:vp_x="0 : 526.18109 : 1"
       inkscape:vp_y="0 : 1000 : 0"
       inkscape:vp_z="744.09448 : 526.18109 : 1"
       inkscape:persp3d-origin="372.04724 : 350.78739 : 1"
       id="perspective3377" />
    <filter
       inkscape:collect="always"
       id="filter4152"
       x="-0.55374959"
       width="2.1074992"
       y="-0.51031821"
       height="2.0206364">
      <feGaussianBlur
         inkscape:collect="always"
         stdDeviation="65.726155"
         id="feGaussianBlur4154" />
    </filter>
    <filter
       inkscape:collect="always"
       id="filter3486"
       x="-0.28131148"
       width="1.562623"
       y="-0.17581967"
       height="1.3516393">
      <feGaussianBlur
         inkscape:collect="always"
         stdDeviation="8.7909836"
         id="feGaussianBlur3488" />
    </filter>
    <filter
       inkscape:collect="always"
       id="filter3658"
       x="-0.28226049"
       width="1.564521"
       y="-0.33545085"
       height="1.6709017">
      <feGaussianBlur
         inkscape:collect="always"
         stdDeviation="14.052118"
         id="feGaussianBlur3660" />
    </filter>
    <filter
       inkscape:collect="always"
       id="filter3727">
      <feGaussianBlur
         inkscape:collect="always"
         stdDeviation="10.847283"
         id="feGaussianBlur3729" />
    </filter>
    <filter
       inkscape:collect="always"
       id="filter3836">
      <feGaussianBlur
         inkscape:collect="always"
         stdDeviation="5.9957107"
         id="feGaussianBlur3838" />
    </filter>
  </defs>
  <sodipodi:namedview
     id="base"
     pagecolor="#ffffff"
     bordercolor="#666666"
     borderopacity="1.0"
     gridtolerance="10000"
     guidetolerance="10"
     objecttolerance="10"
     inkscape:pageopacity="0.0"
     inkscape:pageshadow="2"
     inkscape:zoom="0.65996633"
     inkscape:cx="209.22977"
     inkscape:cy="466.64941"
     inkscape:document-units="px"
     inkscape:current-layer="layer1"
     showgrid="false"
     inkscape:window-width="1280"
     inkscape:window-height="952"
     inkscape:window-x="0"
     inkscape:window-y="25"
     showguides="true"
     inkscape:guide-bbox="true" />
  <metadata
     id="metadata3374">
    <rdf:RDF>
      <cc:Work
         rdf:about="">
        <dc:format>image/svg+xml</dc:format>
        <dc:type
           rdf:resource="http://purl.org/dc/dcmitype/StillImage" />
      </cc:Work>
    </rdf:RDF>
  </metadata>
  <g
     inkscape:label="Layer 1"
     inkscape:groupmode="layer"
     id="layer1">
    <rect
       style="opacity:1;fill:#1a1a1a;fill-opacity:1"
       id="rect3379"
       width="755.59412"
       height="566.47595"
       x="-2.0203052"
       y="288.59976"
       ry="5.7572427"
       inkscape:export-filename="/home/tommy/Desktop/Diddle/data/cutscene2-1.png"
       inkscape:export-xdpi="38.115704"
       inkscape:export-ydpi="38.115704" />
    <rect
       style="opacity:1;fill:#ffffff;fill-opacity:1;filter:url(#filter4152)"
       id="rect3381"
       width="284.86301"
       height="309.10669"
       x="195.96959"
       y="222.01678"
       ry="10.88243"
       transform="matrix(1.6666667,0,0,1.2260262,-195.29616,98.564842)"
       inkscape:export-filename="/home/tommy/Desktop/Diddle/data/cutscene1-2.png"
       inkscape:export-xdpi="38.115704"
       inkscape:export-ydpi="38.115704" />
    <path
       style="fill:#e2e0a9;fill-opacity:1;fill-rule:evenodd;stroke:#726c26;stroke-width:2.379;stroke-linecap:butt;stroke-linejoin:miter;stroke-miterlimit:4;stroke-dasharray:none;stroke-opacity:1"
       d="M 195.10855,589.68019 C 185.86229,592.29022 176.12787,594.13444 166.56501,592.13314 C 159.21062,591.07136 151.61803,590.32012 145.17622,586.26975 C 138.54232,582.75465 132.21249,578.74465 125.14682,576.1249 C 118.00056,572.52439 110.1031,571.07148 102.16432,570.75196 C 97.391258,570.25091 84.26626,567.5662 88.433172,576.17941 C 93.820445,582.11008 102.39082,582.88925 109.64512,585.35536 C 114.0625,585.72213 119.05414,588.40361 113.0625,591.45426 C 105.81368,595.04428 97.527867,594.46126 89.776444,593.23203 C 75.331656,591.90683 60.884613,590.44646 46.400012,589.59325 C 39.14067,589.28602 30.604851,601.56807 41.570773,602.84878 C 52.609969,604.95512 64.204361,603.92455 74.86323,607.98131 C 81.709705,609.76746 88.853397,609.47655 95.809737,610.53791 C 87.830417,611.96036 79.777724,611.22044 71.848308,609.99769 C 61.394976,608.97905 50.854458,608.73421 40.377199,608.90838 C 31.475713,611.26734 43.385648,620.50386 48.168377,620.88391 C 56.126923,623.97813 64.636644,625.29607 72.95158,622.65847 C 79.422292,622.77594 86.640881,620.73443 92.750176,622.99359 C 82.016032,624.78599 71.387421,627.93301 60.473387,628.2018 C 56.039223,626.6251 49.068957,628.41396 53.440516,634.18668 C 56.557023,641.99335 66.014494,641.41344 72.928409,642.01213 C 80.368635,643.37511 87.167316,639.98941 94.242314,638.57501 C 101.63529,637.63622 89.626007,639.75974 87.287776,640.35508 C 80.939866,640.38382 70.096825,650.10718 81.779592,651.46898 C 89.571898,653.38205 96.88143,649.02609 104.55203,648.86839 C 116.38139,649.7534 128.93769,652.27184 140.18805,647.11351 C 148.06861,645.82896 156.14735,646.4861 164.02716,644.82377 C 172.3134,643.58457 180.7303,644.76144 188.94358,642.90561 C 191.4122,642.57479 193.91293,642.36538 196.40238,642.56498"
       id="path3520" />
    <path
       sodipodi:type="arc"
       style="fill:#000000;fill-opacity:0.39737992;fill-rule:evenodd;stroke:none;stroke-width:2.9000001;stroke-linecap:butt;stroke-linejoin:miter;stroke-miterlimit:4;stroke-dasharray:none;stroke-opacity:1;filter:url(#filter3658)"
       id="path3524"
       sodipodi:cx="168.21428"
       sodipodi:cy="430.21933"
       sodipodi:rx="56.785713"
       sodipodi:ry="50.714287"
       d="M 224.99999,430.21933 A 56.785713,50.714287 0 1 1 111.42857,430.21933 A 56.785713,50.714287 0 1 1 224.99999,430.21933 z"
       transform="matrix(0.4791526,-3.3945537e-2,8.0327462e-2,0.2401646,-4.6587327,516.28458)"
       inkscape:export-filename="/home/tommy/Desktop/Diddle/data/cutscene1-2.png"
       inkscape:export-xdpi="38.115704"
       inkscape:export-ydpi="38.115704" />
    <path
       style="fill:#8e5831;fill-opacity:1;fill-rule:evenodd;stroke:#4f3902;stroke-width:3.14034963;stroke-linecap:butt;stroke-linejoin:miter;stroke-miterlimit:4;stroke-dasharray:none;stroke-opacity:1"
       d="M 320.86122,556.80141 C 318.07049,558.10249 303.97466,566.36361 299.24049,570.95025 C 295.60475,574.4727 284.54001,578.82114 279.82673,581.01858 C 273.20606,584.1053 263.81201,583.64634 255.34902,585.31029 C 246.54768,587.04074 241.58376,587.32424 231.14607,586.42231 C 221.94292,585.62705 212.73976,584.83179 203.53662,584.03654 C 196.62232,583.43907 184.73336,584.60785 177.40145,586.04939 C 166.55205,588.18253 158.20837,583.37715 163.96752,591.29541 C 167.91248,596.71934 170.63317,599.99608 170.1394,605.71024 C 169.70845,610.69746 173.21408,616.21691 174.47067,619.96602 C 176.27556,625.35107 175.56735,629.90374 176.96131,634.06277 C 178.35146,638.21038 179.7632,642.42245 181.38414,647.25864 C 182.99121,652.05344 203.31579,647.63508 205.49551,647.20652 C 213.47231,645.63817 219.01073,644.9742 224.45134,642.43767 C 230.24276,639.73757 242.88926,638.09863 249.11222,636.02617 C 256.14315,633.68462 264.92057,634.48087 273.49834,632.79436 C 281.67656,631.18641 293.10604,632.47088 301.38255,632.00045 C 310.64108,631.47419 314.36302,628.92738 322.17901,627.39064 C 332.89248,625.28423 334.44322,623.70718 343.25021,619.60115 C 347.89867,617.43394 348.09348,606.47196 348.39687,602.96094 C 348.87477,597.43041 349.65271,592.04318 347.93005,586.90347 C 346.25343,581.90121 343.64887,578.12972 341.75814,572.48863 C 339.59977,566.04893 338.51022,565.21904 329.69802,561.83623 C 326.2716,560.52091 323.80683,558.47969 320.86122,556.80141 z"
       id="path3512" />
    <path
       style="fill:#7f632e;fill-rule:evenodd;stroke:#56471f;stroke-width:2.39999999999999991;stroke-linecap:butt;stroke-linejoin:miter;stroke-opacity:1;fill-opacity:1;stroke-miterlimit:4;stroke-dasharray:none"
       d="M 333.35034,937.20479 C 331.47954,941.21662 319.60016,950.95497 315.16759,955.38754 C 308.76794,961.78719 299.36455,965.34579 292.43916,970.53983 C 284.96541,976.14514 280.12395,978.30936 274.25642,984.17689 C 266.22565,992.20765 277.20189,995.49861 281.83256,997.81395 C 287.81632,1000.8058 298.4291,996.29872 304.56099,996.29872 C 310.44218,996.29872 318.86437,994.78349 325.7742,994.78349 C 333.18916,994.78349 343.16016,993.08865 348.50263,991.75303 C 355.11637,990.09959 360.60056,988.72257 368.2006,988.72257 C 376.22172,988.72257 382.02284,984.84191 386.38335,982.66166 C 393.1832,979.26173 396.75696,978.34896 401.53564,973.57028 C 406.65773,968.44819 405.54279,963.6026 407.59655,955.38754 C 409.10336,949.36031 401.57913,941.92445 400.02041,935.68956 C 399.08274,931.93891 397.62654,927.87137 395.47472,923.56773"
       id="path3751" />
    <path
       style="fill:#6e7097;fill-rule:evenodd;stroke:#132555;stroke-width:2.4;stroke-linecap:butt;stroke-linejoin:miter;stroke-opacity:1;fill-opacity:1;stroke-miterlimit:4;stroke-dasharray:none"
       d="M 316.68282,752.34688 C 316.32072,755.77683 313.65236,768.22545 313.65236,776.59054 C 313.65236,784.37986 310.62191,793.35406 310.62191,802.34943 C 310.62191,810.60693 310.29877,819.23962 312.13714,826.59309 C 313.78899,833.20049 312.13714,842.47047 312.13714,849.32152 C 312.13714,855.03965 316.56351,864.23518 318.19805,867.50427 C 321.60791,874.32398 321.22851,880.05574 321.22851,888.71747 C 321.22851,896.80262 322.74374,903.16468 322.74374,911.4459 C 322.74374,921.39684 321.78838,925.64284 327.28942,931.14388 C 333.05353,936.90798 348.66841,939.89789 356.07877,941.75048 C 363.08151,943.50116 370.97748,944.71754 377.29197,946.29617 C 385.03857,948.23281 393.67659,945.68 398.50518,943.26571 C 405.72782,939.65439 406.08132,933.93885 406.08132,925.08296 C 406.08132,918.34176 406.08132,907.24453 406.08132,903.86976 C 406.08132,889.98198 393.36773,908.08373 400.02041,894.77839 C 403.84955,887.12009 405.43412,879.40527 409.11178,872.04995 C 411.55731,867.15888 410.62701,857.976 410.62701,850.83675 C 410.62701,842.33552 407.59655,839.18135 407.59655,831.13878 C 407.59655,823.2218 407.32227,815.56838 409.11178,808.41034 C 411.10863,800.42293 412.14224,794.51782 412.14224,785.68191 C 412.14224,776.25902 410.89967,771.07494 407.59655,764.46871 C 405.96134,761.19828 405.36384,757.05309 404.56609,753.86211"
       id="path3747" />
    <path
       style="fill:#7f632e;fill-opacity:1;fill-rule:evenodd;stroke:#56471f;stroke-width:2.39999999999999991;stroke-linecap:butt;stroke-linejoin:miter;stroke-opacity:1;stroke-miterlimit:4;stroke-dasharray:none"
       d="M 428.62344,931.38877 C 426.75264,935.4006 414.87326,945.13895 410.44069,949.57152 C 404.04104,955.97117 394.63765,959.52977 387.71226,964.72381 C 380.23851,970.32912 375.39705,972.49334 369.52952,978.36087 C 361.49875,986.39163 372.47499,989.68259 377.10566,991.99793 C 383.08942,994.98978 393.7022,990.4827 399.83409,990.4827 C 405.71528,990.4827 414.13747,988.96747 421.0473,988.96747 C 428.46226,988.96747 438.43326,987.27263 443.77573,985.93701 C 450.38947,984.28357 455.87366,982.90655 463.4737,982.90655 C 471.49482,982.90655 477.29594,979.02589 481.65645,976.84564 C 488.4563,973.44571 492.03006,972.53294 496.80874,967.75426 C 501.93083,962.63217 500.81589,957.78658 502.86965,949.57152 C 504.37646,943.54429 496.85223,936.10843 495.29351,929.87354 C 494.35584,926.12289 492.89964,922.05535 490.74782,917.75171"
       id="path3753" />
    <path
       style="fill:#6e7097;fill-opacity:1;fill-rule:evenodd;stroke:#24436a;stroke-width:2.4;stroke-linecap:butt;stroke-linejoin:miter;stroke-opacity:1;stroke-miterlimit:4;stroke-dasharray:none"
       d="M 383.32763,765.60082 C 383.55595,769.04227 383.05031,781.76361 384.47731,790.00609 C 385.80608,797.68123 384.35096,807.04085 385.88547,815.90437 C 387.29411,824.04083 388.44836,832.60211 391.51421,839.53419 C 394.269,845.76295 394.22272,855.17884 395.39144,861.92947 C 396.36689,867.56379 402.29704,875.86944 404.46529,878.81177 C 408.98854,884.94984 409.59248,890.6623 411.07008,899.19707 C 412.44932,907.16371 415.02765,913.17403 416.44033,921.33387 C 418.13786,931.13895 417.92083,935.48569 424.27965,939.96767 C 430.94257,944.66399 446.83862,944.94634 454.45639,945.50764 C 461.65513,946.03807 469.64287,945.88965 476.1341,946.36795 C 484.09752,946.95472 492.17344,942.96577 496.5194,939.76316 C 503.02012,934.97267 502.39343,929.2806 500.88271,920.55452 C 499.73273,913.91213 497.83966,902.97757 497.26396,899.65226 C 494.89485,885.96805 485.45558,905.97327 489.741,891.72808 C 492.20758,883.52882 492.45286,875.65677 494.82187,867.7819 C 496.39719,862.54534 493.91402,853.65576 492.69614,846.62115 C 491.24592,838.24453 487.72181,835.65356 486.34984,827.72888 C 484.99928,819.92794 483.42343,812.43349 483.96562,805.0751 C 484.57064,796.86413 484.58175,790.86925 483.07443,782.16286 C 481.46699,772.87809 479.35828,767.98196 474.97662,762.03604 C 472.80748,759.0925 471.51161,755.11 470.18121,752.10188"
       id="path3749" />
    <path
       style="fill:#e2e0a9;fill-opacity:1;fill-rule:evenodd;stroke:#726c26;stroke-width:2.37899995;stroke-linecap:butt;stroke-linejoin:miter;stroke-miterlimit:4;stroke-dasharray:none;stroke-opacity:1"
       d="M 481.26025,715.09399 C 484.10891,724.26954 486.20467,733.95293 484.45175,743.56442 C 483.58083,750.94384 483.02651,758.55335 479.14437,765.09791 C 475.80228,771.82064 471.95759,778.25222 469.52175,785.38338 C 466.10756,792.6205 464.8597,800.55295 464.74593,808.49734 C 464.36869,813.28178 462.02486,826.47192 470.52724,822.08329 C 476.31637,816.54421 476.87328,807.95652 479.15065,800.64077 C 479.40288,796.21538 481.95416,791.15595 485.15899,797.06656 C 488.93557,804.21995 488.56737,812.51809 487.53934,820.29876 C 486.58876,834.77302 485.5031,849.25305 485.02538,863.75489 C 484.90629,871.01975 497.40532,879.23456 498.40155,868.23915 C 500.22123,857.14909 498.89068,845.58528 502.66998,834.82491 C 504.27818,827.93447 503.80232,820.8007 504.68314,813.8192 C 506.3118,821.759 505.78072,829.82816 504.76378,837.78659 C 504.01625,848.26279 504.04453,858.80612 504.49004,869.27535 C 507.07878,878.11275 516.0037,865.96755 516.25973,861.17658 C 519.14676,853.14056 520.24383,844.59956 517.39173,836.35573 C 517.34155,829.88415 515.11374,822.72086 517.21389,816.55509 C 519.28374,827.23921 522.70502,837.78274 523.25642,848.68614 C 521.79511,853.15967 523.76393,860.08125 529.42147,855.56163 C 537.14479,852.24395 536.3201,842.80468 536.7395,835.87757 C 537.90929,828.40454 534.34862,821.69583 532.75143,814.65985 C 531.62145,807.29367 534.05534,819.24392 534.71105,821.56594 C 534.90421,827.91098 544.90518,838.49852 545.9639,826.7844 C 547.67448,818.94515 543.13064,811.7509 542.7743,804.08696 C 543.35259,792.23865 545.54494,779.62132 540.09692,768.50836 C 538.60867,760.66371 539.05632,752.57066 537.19044,744.73656 C 535.73701,736.4852 536.69546,728.04064 534.6275,719.87818 C 534.23285,717.41896 533.95873,714.9245 534.09378,712.43071"
       id="path3745" />
    <path
       style="fill:#8e5831;fill-opacity:1;fill-rule:evenodd;stroke:#4f3902;stroke-width:3.14034963;stroke-linecap:butt;stroke-linejoin:miter;stroke-miterlimit:4;stroke-dasharray:none;stroke-opacity:1"
       d="M 402.20466,631.99721 C 404.46055,634.0929 417.42013,644.04217 423.45148,646.70157 C 428.08344,648.74392 436.27714,657.35791 440.08717,660.89732 C 445.43907,665.86907 448.55007,674.7449 453.27736,681.95903 C 458.19362,689.46159 460.32484,693.95367 463.41831,703.96313 C 466.1459,712.7887 468.87348,721.61428 471.60107,730.43984 C 473.6503,737.07047 479.20848,747.64497 483.30394,753.89494 C 489.36422,763.14333 488.05312,772.68218 493.22103,764.36597 C 496.761,758.66945 498.77257,754.91541 504.25229,753.22188 C 509.0349,751.74379 512.82874,746.41833 515.82906,743.84289 C 520.1386,740.14366 524.62299,739.08601 527.95137,736.229 C 531.27061,733.37981 534.64144,730.48636 538.51173,727.16416 C 542.3489,723.87039 530.60474,706.70399 529.38718,704.84593 C 524.93148,698.04624 522.23152,693.16513 517.83355,689.07954 C 513.15199,684.73051 506.87308,673.63117 502.61054,668.64608 C 497.79457,663.01374 495.22816,654.58221 490.43677,647.27023 C 485.86856,640.29885 482.75615,629.22655 479.20479,621.7359 C 475.23204,613.35649 471.47151,610.86701 467.10563,604.2044 C 461.12128,595.07188 459.07648,594.22886 451.95725,587.6153 C 448.19963,584.12456 437.97063,588.07051 434.60366,589.11109 C 429.30003,590.7502 424.01622,592.0574 419.90302,595.58809 C 415.89983,599.02439 413.38619,602.85708 408.87176,606.73221 C 403.71821,611.15593 403.35951,612.47773 403.5427,621.91514 C 403.61394,625.58466 402.65067,628.63651 402.20466,631.99721 z"
       id="path3743" />
    <path
       style="fill:#ffffff;fill-opacity:0.26200873;fill-rule:evenodd;stroke:none;stroke-width:2.40000010000000019;stroke-linecap:butt;stroke-linejoin:miter;stroke-miterlimit:4;stroke-dasharray:none;stroke-opacity:1;filter:url(#filter3836)"
       d="M 447.61753,592.31839 C 435.98577,593.91917 424.71597,599.2127 417.58628,608.75589 C 413.67237,611.47904 412.18419,615.8574 413.36753,620.34964 C 413.27752,623.21546 411.15914,627.72611 415.29774,628.64767 C 431.81885,639.15555 449.62322,650.24193 458.17831,668.77915 C 467.32175,683.68355 474.18929,699.84664 478.07602,716.86537 C 481.13719,728.40125 486.57312,739.10292 492.27378,749.44339 C 494.41934,758.75901 486.88524,766.64495 483.96128,774.63089 C 484.25234,780.68988 491.11259,783.72544 492.99253,789.34964 C 499.97069,801.37327 498.32308,815.74385 496.29517,828.87551 C 497.40253,834.71391 491.37449,840.95124 485.68003,837.81839 C 480.19923,833.74939 480.24736,825.64844 478.72611,819.51594 C 476.60728,805.64828 478.73849,791.37591 478.11753,777.47464 C 474.27986,771.20155 470.48912,764.62092 466.49253,758.59964 C 446.12545,762.55593 425.20759,765.05379 404.64878,768.56839 C 401.70381,766.48232 400.38475,762.95682 399.89878,759.50589 C 375.02028,759.36788 350.1495,758.69451 325.27378,758.34964 C 323.61725,775.21575 320.49793,792.06414 320.33628,809.00589 C 321.60913,821.9755 323.20263,835.10711 321.99253,848.06839 C 323.71792,857.58368 330.74303,865.68047 330.71128,875.81839 C 331.57359,887.76712 331.6137,899.8033 332.48766,911.72399 C 331.81721,917.36259 332.65688,924.49354 339.23956,926.0287 C 346.66758,929.42104 354.7401,931.07441 361.86753,935.28714 C 355.37532,941.21023 345.84109,938.9135 338.77378,943.28714 C 325.66783,958.7103 308.38226,969.74713 291.21128,980.03714 C 288.56973,981.963 284.29201,984.31801 283.33628,986.97464 C 293.24129,991.3082 303.713,984.6935 314.01653,985.54637 C 330.65,984.97049 347.11013,982.85744 363.14878,978.75589 C 370.55895,977.57997 377.71628,980.21463 384.36753,982.63089 C 394.44984,982.24854 404.27167,978.78908 414.49099,979.51292 C 429.35793,979.0216 443.90698,976.00116 458.39605,973.40077 C 467.6442,973.30275 476.47891,970.48288 484.30503,965.66214 C 490.46276,963.19708 496.19616,957.85902 496.11753,950.75589 C 498.00698,945.91809 494.96105,941.4503 493.05503,937.31839 C 492.19717,931.97089 497.7372,927.17984 495.1131,921.86263 C 493.85514,915.68994 493.28121,908.36166 491.18003,902.97464 C 484.72127,903.2987 480.15216,895.72736 483.23695,890.12262 C 485.44271,880.13785 487.65347,870.13937 488.86753,859.97464 C 493.99692,865.51612 492.26787,857.73574 492.98384,854.13451 C 494.51843,839.4427 497.42935,824.90965 498.77378,810.22464 C 499.90351,803.91605 502.52437,798.03606 506.08628,792.75589 C 508.87982,796.97202 511.39095,801.37791 512.93003,806.19339 C 514.09022,802.06162 516.79648,794.08487 522.39878,797.28714 C 526.31519,800.20009 524.8606,807.79418 526.21128,810.16214 C 525.57582,806.57181 526.24162,802.57947 530.46128,802.19339 C 532.59363,800.72744 537.24152,803.92564 536.64878,800.75589 C 536.93747,790.00908 538.93689,778.83682 534.64878,768.66214 C 531.90382,756.78273 531.58458,744.49853 529.80503,732.47464 C 529.68016,728.4281 530.17925,724.22859 532.30503,720.72464 C 520.87257,696.71374 499.71374,679.17116 488.26286,655.12844 C 478.99326,639.45989 475.28526,620.68536 462.71128,606.97464 C 457.91155,602.22216 454.74736,594.36987 447.99253,592.28714 C 447.86727,592.29439 447.73935,592.26951 447.61753,592.31839 z M 529.36753,824.13089 C 529.74765,824.17048 528.69544,822.89028 529.36753,824.13089 z M 529.36753,824.13089 C 530.16118,827.8012 530.35009,827.8442 529.36753,824.13089 z M 407.36753,862.94339 C 415.25831,873.42662 419.70485,885.87556 421.68003,898.78714 C 423.66078,907.81942 425.90126,916.68175 427.49253,925.81839 C 427.77541,930.11495 431.23724,932.03262 434.21128,934.34964 C 437.04165,938.82057 429.19926,941.21663 427.33628,944.41214 C 419.2853,951.97986 411.13549,959.39237 402.05503,965.72464 C 404.9461,955.09093 399.02807,945.30598 393.64878,936.66214 C 402.05644,933.04815 399.80194,922.39193 399.58628,915.06839 C 399.45901,912.03307 399.74979,908.74615 399.86753,905.88089 C 393.22936,905.6146 389.25848,897.03447 393.53869,891.80379 C 398.13622,881.06532 402.28049,870.28856 404.89878,858.91214 C 405.7217,860.25589 406.54461,861.59964 407.36753,862.94339 z"
       id="path3755" />
    <path
       style="fill:#8e3131;fill-rule:evenodd;stroke:#5e160a;stroke-width:2.70000000000000018;stroke-linecap:butt;stroke-linejoin:miter;stroke-opacity:1;fill-opacity:1;stroke-miterlimit:4;stroke-dasharray:none"
       d="M 304.28571,573.43361 C 306.61173,564.12953 300.25398,590.63196 297.85714,600.21933 C 296.04377,607.4728 297.85714,618.2351 297.85714,625.93361 C 297.85714,636.13584 297.0298,647.51118 298.92857,657.00504 C 300.40708,664.39757 302.14286,671.54228 302.14286,679.50504 C 302.14286,686.5997 303.67808,694.21737 305.35714,700.93361 C 306.81089,706.74862 307.5,714.13381 307.5,720.21933 C 307.5,726.41178 308.46458,733.61365 309.64286,739.50504 C 310.60556,744.31857 314.2786,747.35507 317.14286,750.21933 C 321.64375,754.72021 324.52315,760.774 327.85714,765.21933 C 330.66019,768.95672 341.71421,769.48716 346.07143,770.57647 C 352.31535,772.13745 359.79854,771.6479 366.42857,771.6479 C 375,771.6479 383.57143,771.6479 392.14286,771.6479 C 398.57143,771.6479 405,771.6479 411.42857,771.6479 C 418.27617,771.6479 425.31149,772.19503 431.78571,770.57647 C 437.10443,769.24679 442.95284,769.65969 447.85714,768.43361 C 454.4568,766.7837 458.77588,767.15773 462.85714,763.07647 C 467.14139,758.79223 469.89958,755.26387 471.42857,749.1479 C 472.72989,743.94264 473.34998,738.24797 474.64286,733.07647 C 475.87995,728.12809 474.64286,721.08026 474.64286,715.93361 C 474.64286,709.27795 467.39887,701.14224 466.07143,694.50504 C 464.54109,686.85334 459.87126,680.64705 458.57143,674.1479 C 457.47151,668.64832 454.28571,666.17639 454.28571,660.21933 C 454.28571,655.88222 452.30552,649.83037 450,645.21933 C 447.33744,639.89421 447.85714,633.1099 447.85714,627.00504 C 447.85714,621.27807 445.71429,618.07989 445.71429,612.00504 C 445.71429,606.29075 445.71429,600.57647 445.71429,594.86218 C 445.71429,589.59636 445.56868,583.56546 444.64286,579.86218 C 443.10383,573.70606 441.68912,572.33293 440.35714,567.00504 C 439.6234,564.07006 437.0659,561.57094 435,559.50504"
       id="path3506" />
    <path
       sodipodi:type="arc"
       style="fill:#69d0e6;fill-opacity:1;fill-rule:evenodd;stroke:#3b88af;stroke-width:2.9000001;stroke-linecap:butt;stroke-linejoin:miter;stroke-miterlimit:4;stroke-dasharray:none;stroke-opacity:1"
       id="path2383"
       sodipodi:cx="168.21428"
       sodipodi:cy="430.21933"
       sodipodi:rx="56.785713"
       sodipodi:ry="50.714287"
       d="M 224.99999,430.21933 A 56.785713,50.714287 0 1 1 111.42857,430.21933 A 56.785713,50.714287 0 1 1 224.99999,430.21933 z"
       transform="matrix(0.4791526,-7.3757413e-2,8.0327462e-2,0.5218335,-4.6276368,380.17148)"
       inkscape:export-filename="/home/tommy/Desktop/Diddle/data/cutscene1-2.png"
       inkscape:export-xdpi="38.115704"
       inkscape:export-ydpi="38.115704" />
    <path
       sodipodi:type="arc"
       style="fill:#ffffff;fill-opacity:0.66528931;stroke:none;stroke-width:2.9000001;stroke-miterlimit:4;stroke-dasharray:none;stroke-opacity:1;filter:url(#filter4025)"
       id="path3155"
       sodipodi:cx="170"
       sodipodi:cy="434.86218"
       sodipodi:rx="24.285715"
       sodipodi:ry="22.5"
       d="M 194.28572,434.86218 A 24.285715,22.5 0 1 1 145.71428,434.86218 A 24.285715,22.5 0 1 1 194.28572,434.86218 z"
       transform="matrix(0.799789,-0.1231139,0.1184409,0.7694313,-77.820356,274.92457)"
       inkscape:export-filename="/home/tommy/Desktop/Diddle/data/cutscene1-2.png"
       inkscape:export-xdpi="38.115704"
       inkscape:export-ydpi="38.115704" />
    <path
       style="fill:#ffffff;fill-opacity:1;stroke:#a3a3a3;stroke-width:0.82840347;stroke-miterlimit:4;stroke-dasharray:none;stroke-opacity:1"
       d="M 115.20603,577.58069 C 115.31187,577.84267 115.42813,578.12191 115.55945,578.38889 L 120.496,588.42207 C 122.33005,592.14964 125.96941,594.81697 128.63604,594.4065 C 131.30265,593.99602 131.96901,590.66589 130.13494,586.93832 L 125.74696,578.01992 L 115.20603,577.58069 z"
       id="rect4252"
       inkscape:export-filename="/home/tommy/Desktop/Diddle/data/cutscene1-2.png"
       inkscape:export-xdpi="38.115704"
       inkscape:export-ydpi="38.115704" />
    <path
       style="fill:#ffffff;fill-opacity:1;stroke:#a3a3a3;stroke-width:0.82840347;stroke-miterlimit:4;stroke-dasharray:none;stroke-opacity:1"
       d="M 105.2544,578.92321 L 96.348083,581.85109 L 100.83239,590.96503 C 102.6664,594.69263 106.28521,597.36313 108.95183,596.95266 C 111.61844,596.54216 112.30535,593.20888 110.47134,589.48129 L 105.52514,579.42857 C 105.44012,579.25567 105.3469,579.09135 105.2544,578.92321 z"
       id="rect4250"
       inkscape:export-filename="/home/tommy/Desktop/Diddle/data/cutscene1-2.png"
       inkscape:export-xdpi="38.115704"
       inkscape:export-ydpi="38.115704" />
    <path
       sodipodi:type="arc"
       style="fill:#000000;fill-opacity:1;fill-rule:evenodd;stroke:#3ca2aa;stroke-width:12.85500431;stroke-linecap:butt;stroke-linejoin:miter;stroke-miterlimit:4;stroke-dasharray:none;stroke-opacity:1"
       id="path4033"
       sodipodi:cx="168.21428"
       sodipodi:cy="430.21933"
       sodipodi:rx="56.785713"
       sodipodi:ry="50.714287"
       d="M 224.99999,430.21933 A 56.785713,50.714287 0 1 1 111.42857,430.21933 A 56.785713,50.714287 0 1 1 224.99999,430.21933 z"
       transform="matrix(7.5719345e-2,-1.1655708e-2,4.6694669e-2,9.4903617e-2,93.155103,550.50566)"
       inkscape:export-filename="/home/tommy/Desktop/Diddle/data/cutscene1-2.png"
       inkscape:export-xdpi="38.115704"
       inkscape:export-ydpi="38.115704" />
    <path
       sodipodi:type="arc"
       style="fill:#000000;fill-opacity:1;fill-rule:evenodd;stroke:#3ca2aa;stroke-width:12.85500431;stroke-linecap:butt;stroke-linejoin:miter;stroke-miterlimit:4;stroke-dasharray:none;stroke-opacity:1"
       id="path4035"
       sodipodi:cx="168.21428"
       sodipodi:cy="430.21933"
       sodipodi:rx="56.785713"
       sodipodi:ry="50.714287"
       d="M 224.99999,430.21933 A 56.785713,50.714287 0 1 1 111.42857,430.21933 A 56.785713,50.714287 0 1 1 224.99999,430.21933 z"
       transform="matrix(7.5719345e-2,-1.1655708e-2,4.6694669e-2,9.4903617e-2,73.952867,553.11523)"
       inkscape:transform-center-x="-10.116873"
       inkscape:transform-center-y="9.9788487"
       inkscape:export-filename="/home/tommy/Desktop/Diddle/data/cutscene1-2.png"
       inkscape:export-xdpi="38.115704"
       inkscape:export-ydpi="38.115704" />
    <path
       sodipodi:type="arc"
       style="fill:#ffffff;fill-opacity:1;fill-rule:evenodd;stroke:none;stroke-width:12.85500431;stroke-linecap:butt;stroke-linejoin:miter;stroke-miterlimit:4;stroke-dasharray:none;stroke-opacity:1"
       id="path4037"
       sodipodi:cx="168.21428"
       sodipodi:cy="430.21933"
       sodipodi:rx="56.785713"
       sodipodi:ry="50.714287"
       d="M 224.99999,430.21933 A 56.785713,50.714287 0 1 1 111.42857,430.21933 A 56.785713,50.714287 0 1 1 224.99999,430.21933 z"
       transform="matrix(2.7534854e-2,-4.2385234e-3,1.6980227e-2,3.45111e-2,112.25467,573.52721)"
       inkscape:export-filename="/home/tommy/Desktop/Diddle/data/cutscene1-2.png"
       inkscape:export-xdpi="38.115704"
       inkscape:export-ydpi="38.115704" />
    <path
       sodipodi:type="arc"
       style="fill:#ffffff;fill-opacity:1;fill-rule:evenodd;stroke:none;stroke-width:12.85500431;stroke-linecap:butt;stroke-linejoin:miter;stroke-miterlimit:4;stroke-dasharray:none;stroke-opacity:1"
       id="path4039"
       sodipodi:cx="168.21428"
       sodipodi:cy="430.21933"
       sodipodi:rx="56.785713"
       sodipodi:ry="50.714287"
       d="M 224.99999,430.21933 A 56.785713,50.714287 0 1 1 111.42857,430.21933 A 56.785713,50.714287 0 1 1 224.99999,430.21933 z"
       transform="matrix(2.7534854e-2,-4.2385234e-3,1.6980227e-2,3.45111e-2,92.862443,576.23156)"
       inkscape:export-filename="/home/tommy/Desktop/Diddle/data/cutscene1-2.png"
       inkscape:export-xdpi="38.115704"
       inkscape:export-ydpi="38.115704" />
    <path
       sodipodi:type="arc"
       style="fill:#ffffff;fill-opacity:0.38429751;stroke:none;stroke-width:1.5;stroke-miterlimit:4;stroke-dasharray:none;stroke-opacity:1;filter:url(#filter4236)"
       id="path4046"
       sodipodi:cx="149.28572"
       sodipodi:cy="436.29074"
       sodipodi:rx="3.5714285"
       sodipodi:ry="3.5714285"
       d="M 152.85715,436.29074 A 3.5714285,3.5714285 0 1 1 145.71429,436.29074 A 3.5714285,3.5714285 0 1 1 152.85715,436.29074 z"
       transform="matrix(0.7255176,-0.1116811,0.4802594,0.9760927,-211.06535,182.35688)"
       inkscape:export-filename="/home/tommy/Desktop/Diddle/data/cutscene1-2.png"
       inkscape:export-xdpi="38.115704"
       inkscape:export-ydpi="38.115704" />
    <path
       sodipodi:type="arc"
       style="fill:#ffffff;fill-opacity:0.38429751;stroke:none;stroke-width:1.5;stroke-miterlimit:4;stroke-dasharray:none;stroke-opacity:1;filter:url(#filter4236)"
       id="path4240"
       sodipodi:cx="149.28572"
       sodipodi:cy="436.29074"
       sodipodi:rx="3.5714285"
       sodipodi:ry="3.5714285"
       d="M 152.85715,436.29074 A 3.5714285,3.5714285 0 1 1 145.71429,436.29074 A 3.5714285,3.5714285 0 1 1 152.85715,436.29074 z"
       transform="matrix(0.7255176,-0.1116811,0.4802594,0.9760927,-192.07044,179.79585)"
       inkscape:export-filename="/home/tommy/Desktop/Diddle/data/cutscene1-2.png"
       inkscape:export-xdpi="38.115704"
       inkscape:export-ydpi="38.115704" />
    <path
       style="fill:#ffffff;fill-opacity:0.22727272;stroke:none;stroke-width:1.39999998;stroke-miterlimit:4;stroke-dasharray:none;stroke-opacity:1;filter:url(#filter4379)"
       d="M 186.94797,449.94765 C 181.88669,449.23528 178.12107,456.978 183.44797,459.32265 C 187.5132,462.28951 196.57013,458.86294 194.01047,453.13515 C 192.65445,450.76131 189.61266,449.66246 186.94797,449.94765 z"
       id="path4275"
       transform="matrix(0.6576683,-0.1012368,0.3079326,0.6258509,-144.80115,336.89955)"
       inkscape:export-filename="/home/tommy/Desktop/Diddle/data/cutscene1-2.png"
       inkscape:export-xdpi="38.115704"
       inkscape:export-ydpi="38.115704" />
    <path
       style="fill:url(#radialGradient4266);fill-opacity:1;stroke:none;stroke-width:1.39999998;stroke-miterlimit:4;stroke-dasharray:none;stroke-opacity:1"
       d="M 115.51757,596.53707 C 111.69276,597.12584 109.81641,600.09265 111.33408,603.1772 C 111.39733,603.3058 111.47426,603.4404 111.54706,603.56519 C 112.13441,601.64477 114.13069,600.11682 117.05728,599.66631 C 119.9794,599.21651 123.08791,599.94227 125.34848,601.41967 C 125.29897,601.29816 125.2462,601.16689 125.18622,601.0449 C 123.66854,597.96036 119.34238,595.94831 115.51757,596.53707 z"
       id="path4256"
       inkscape:export-filename="/home/tommy/Desktop/Diddle/data/cutscene1-2.png"
       inkscape:export-xdpi="38.115704"
       inkscape:export-ydpi="38.115704" />
    <path
       style="opacity:1;fill:#000000;fill-opacity:0.48471614"
       id="path4178"
       d="M 108.22847,612.28583 C 108.79413,612.09758 109.3396,611.85423 109.90513,611.66283 C 110.54288,611.39775 111.19707,611.18539 111.86691,611.01963 C 112.3186,610.91246 112.77715,610.83903 113.23552,610.76754 C 113.64317,610.68083 114.0428,610.65559 114.45308,610.73122 C 114.82551,610.79175 115.20665,610.85005 115.56193,610.98048 C 115.88307,611.08765 116.20388,611.20589 116.49365,611.38288 C 116.67554,611.47598 116.58614,611.42214 116.76077,611.54626 L 114.54173,613.43843 C 114.38506,613.33763 114.4685,613.38767 114.29053,613.28977 C 114.00739,613.13775 113.706,613.02759 113.39958,612.93194 C 113.05047,612.83426 112.69714,612.75301 112.33611,612.71418 C 111.94395,612.68588 111.56204,612.73953 111.17619,612.81033 C 110.72939,612.88106 110.28258,612.95515 109.84326,613.06445 C 109.18696,613.23489 108.54965,613.46183 107.91811,613.70817 C 107.33875,613.92316 106.77213,614.16999 106.19278,614.38519 L 108.22847,612.28583 z"
       inkscape:export-filename="/home/tommy/Desktop/Diddle/data/cutscene1-2.png"
       inkscape:export-xdpi="38.115704"
       inkscape:export-ydpi="38.115704" />
    <path
       style="fill:#d7d596;fill-opacity:1;fill-rule:evenodd;stroke:#9e963a;stroke-width:2.76491833;stroke-linecap:butt;stroke-linejoin:miter;stroke-miterlimit:4;stroke-dasharray:none;stroke-opacity:1"
       d="M 387.83503,384.74054 C 404.41806,385.77431 419.00487,395.06585 431.65257,405.15146 C 439.76659,410.709 446.6666,419.06572 447.70788,429.14875 C 449.12648,438.62346 449.23374,448.25973 448.99029,457.81313 C 447.34134,475.68069 444.73672,493.50655 440.5899,510.96877 C 436.50974,522.53271 428.23024,531.82721 421.43902,541.82714 C 414.286,551.22112 405.43253,560.62199 393.4765,563.3245 C 380.949,565.64531 368.64721,561.06662 356.45969,558.84399 C 345.11827,556.36081 333.83116,551.42191 326.22588,542.34781 C 315.72053,530.86777 308.84104,516.5013 304.25881,501.75451 C 303.29879,497.29431 302.96014,492.71051 303.1054,488.15496 C 298.70777,485.27895 300.08767,479.42769 300.03856,474.99471 C 300.22128,458.5835 300.36722,441.41951 307.80361,426.37632 C 315.81306,409.01776 330.37716,394.10675 348.72139,387.96467 C 361.40747,384.79649 374.5826,385.30251 387.53979,384.7277 L 387.83503,384.74054 z"
       id="path2509" />
    <path
       style="fill:#9e9b3c;fill-opacity:1;fill-rule:evenodd;stroke:#504814;stroke-width:3.528;stroke-linecap:butt;stroke-linejoin:miter;stroke-opacity:1;stroke-miterlimit:4;stroke-dasharray:none"
       d="M 442.4005,482.75572 C 448.46475,479.80892 458.35868,471.07363 464.61861,467.94367 C 474.35516,463.07537 461.5707,454.44183 457.21257,445.72556 C 453.39069,438.08181 461.13367,424.48665 462.7671,417.95294 C 464.91027,409.38026 453.80121,402.45603 451.65805,393.88334 C 449.95913,387.08769 439.29695,382.42143 434.99448,371.66526 C 430.88866,361.4007 428.15754,345.31923 423.88543,362.40772 C 419.93378,378.21435 422.38937,370.16921 412.77639,360.55621 C 404.45727,352.23709 400.69484,348.47466 390.55828,338.33812 C 379.29599,327.07582 379.57696,334.89055 385.00377,345.74415 C 394.18278,364.10219 382.28959,354.13901 373.89473,345.74415 C 364.48837,336.33781 352.39287,333.21155 338.71607,330.93208 C 325.42619,328.71711 323.57743,325.70416 316.49798,332.78359 C 308.86402,340.41755 328.3334,350.89992 333.16155,360.55621 C 338.85156,371.93625 307.94465,356.02398 296.1314,351.29868 C 285.30635,346.96866 276.12846,345.65323 268.35878,347.59566 C 263.68031,348.76527 282.27707,365.44041 283.17085,366.11073 C 292.37422,373.01328 279.067,377.62061 275.7648,380.92279 C 268.14332,388.54427 288.72536,399.76853 288.72536,410.54692 C 288.72536,421.85858 275.50302,410.81503 290.57687,430.9135 C 297.74145,440.46627 289.68501,444.76591 285.02234,449.42858 C 283.18711,451.26383 284.9091,471.87317 283.17085,475.34969 C 279.07037,483.55065 275.17721,485.28353 281.31933,497.56778 C 287.24374,509.41661 278.28885,507.66395 281.31933,519.78589 C 283.58496,528.84841 294.27989,533.8156 294.27989,547.55849 C 294.27989,560.44558 285.15193,566.56884 297.98289,569.7766 C 311.82708,573.23763 316.87129,576.07776 323.904,590.14317 C 330.40642,603.14797 328.90944,607.08129 340.56758,601.25222 C 345.61208,598.72997 369.57029,617.91579 373.89473,617.91579 C 381.91183,617.91579 363.36205,595.06013 405.37035,616.06428 C 419.24298,623.0006 421.97991,619.87534 427.58844,608.65826 C 432.87135,598.09245 432.45936,595.98968 446.10352,599.40071 C 452.20952,600.92722 448.28003,586.99163 449.80654,580.88564 C 451.14537,575.53032 457.21257,571.5937 457.21257,566.07357 C 457.21257,554.6011 468.04512,556.81604 468.32161,556.81604 C 477.15814,556.81604 459.35574,541.31912 457.21257,532.74644 C 455.46054,525.73834 453.03711,518.84099 449.80654,512.37985 C 445.92596,504.61869 474.96797,515.97599 455.36106,501.2708 C 441.9713,491.22848 437.34283,481.04008 442.4005,501.2708 C 444.84784,511.06012 433.14297,492.87067 433.14297,508.67683 C 433.14297,522.93596 433.28414,524.91282 420.18241,521.63738 C 413.17431,519.88537 417.88437,536.896 412.77639,542.00398 C 409.98908,544.79129 407.85138,535.78286 403.51884,553.11302 C 401.99235,559.21901 391.10976,555.28953 385.00377,556.81604 C 375.49997,559.19199 366.52325,562.84208 357.23115,560.51904 C 343.73647,557.14538 355.89644,543.85549 340.56758,543.85549 C 335.23676,543.85549 322.14462,527.28402 318.34949,523.48889 C 313.21986,518.35928 315.46424,512.59582 316.49798,510.52834 C 321.96505,499.59419 293.7201,502.47646 314.64647,492.01327 C 322.33512,488.16894 305.38893,476.53983 305.38893,467.94367 C 305.38893,460.26254 318.3705,464.32474 314.64647,449.42858 C 312.46388,440.69822 296.46049,434.61652 316.49798,434.61652 C 328.10065,434.61652 325.75551,426.93584 325.75551,416.10145 C 325.75551,412.94172 339.75084,411.36366 342.41909,408.69541 C 348.00163,403.11287 350.05249,422.58715 364.63718,403.1409 C 371.70562,393.71629 375.6218,386.35288 385.00377,395.73486 C 394.72649,405.45757 395.5679,412.39843 407.22186,412.39843 C 416.50438,412.39843 412.20357,413.10431 418.3309,425.35898 C 418.5957,425.88857 438.62456,431.43342 442.4005,436.46803 C 443.37839,437.77186 424.50078,439.55297 440.54899,447.57707 C 450.48803,452.5466 462.77256,466.55366 449.80654,469.79516 C 439.36386,472.40583 435.97361,466.68847 442.4005,482.75572 z"
       id="path3284" />
    <path
       style="opacity:1;fill:#9e9b3c;fill-opacity:1;stroke:#504814;stroke-width:2.76491833;stroke-miterlimit:4;stroke-dasharray:none;stroke-opacity:0.17030568"
       id="path3288"
       d="M 385.8384,564.38343 C 388.64975,567.89754 391.07868,571.70461 393.29246,575.61771 C 395.18949,579.03646 395.68012,582.92556 396.74671,586.62927 C 397.61258,589.83559 398.66623,592.99057 399.95092,596.05303 C 400.72358,598.18725 401.60126,600.2836 402.54752,602.34618 L 405.85414,603.85418 C 404.89572,601.80321 404.01932,599.7101 403.26086,597.57676 C 401.97394,594.52453 400.88608,591.39447 400.03684,588.19036 C 398.94974,584.46476 398.4522,580.55568 396.59414,577.09222 C 394.40351,573.17166 391.97755,569.36594 389.20099,565.83249 L 385.8384,564.38343 z" />
    <path
       style="opacity:1;fill:#9e9b3c;fill-opacity:1;stroke:#504814;stroke-width:2.76491833;stroke-miterlimit:4;stroke-dasharray:none;stroke-opacity:0.17030568"
       id="path3290"
       d="M 374.115,564.49828 C 374.33395,569.79536 374.90123,575.12001 375.69659,580.36561 C 376.7283,585.00208 376.99735,589.76241 377.829,594.42503 C 378.82031,598.05257 378.93913,601.83759 379.69477,605.4995 L 382.97316,607.08293 C 382.14847,603.43776 382.12159,599.63096 381.0892,596.01242 C 380.21231,591.35552 379.98978,586.5807 378.9223,581.94758 C 378.10737,576.73605 377.55296,571.42687 377.37745,566.16058 L 374.115,564.49828 z" />
    <path
       style="opacity:1;fill:#9e9b3c;fill-opacity:1;stroke:#504814;stroke-width:2.76491833;stroke-miterlimit:4;stroke-dasharray:none;stroke-opacity:0.17030568"
       id="path3292"
       d="M 351.89692,562.64677 C 351.87177,566.89135 351.03018,571.08997 350.58152,575.30762 C 350.18977,579.23388 350.10919,583.18045 350.06258,587.12292 C 349.65039,590.19647 349.0495,593.22521 348.02895,596.15236 C 347.53147,597.98545 346.59268,599.64329 345.89976,601.4059 L 349.08733,603.18315 C 349.7797,601.41523 350.72563,599.75529 351.2225,597.91705 C 352.25831,594.95223 352.86937,591.88848 353.2973,588.7757 C 353.3396,584.84203 353.41195,580.90418 353.79127,576.98569 C 354.23122,572.75854 355.05817,568.55772 355.15935,564.30907 L 351.89692,562.64677 z" />
    <path
       style="opacity:1;fill:#9e9b3c;fill-opacity:1;stroke:#504814;stroke-width:2.76491833;stroke-miterlimit:4;stroke-dasharray:none;stroke-opacity:0.17030568"
       id="path3294"
       d="M 340.00196,556.2515 C 336.14466,558.1164 332.75746,560.50285 329.58776,563.36795 C 326.91845,566.51693 323.93319,569.31003 320.48264,571.5745 C 319.91557,571.93997 319.3485,572.30544 318.78142,572.67091 L 321.83297,574.63148 C 322.40141,574.26515 322.96982,573.89883 323.53824,573.53251 C 326.98524,571.23474 329.98126,568.43485 332.66153,565.27363 C 335.82216,562.43524 339.20129,560.07049 343.06444,558.26648 L 340.00196,556.2515 z" />
    <path
       style="opacity:1;fill:#9e9b3c;fill-opacity:1;stroke:#504814;stroke-width:2.76491833;stroke-miterlimit:4;stroke-dasharray:none;stroke-opacity:0.17030568"
       id="path3296"
       d="M 328.8769,545.39278 C 326.02343,548.20539 322.67805,550.41441 319.68055,553.05942 C 316.41799,555.68742 313.06941,558.21464 309.86947,560.91593 C 309.43914,561.38182 309.00882,561.84771 308.57849,562.3136 L 311.68311,564.19955 C 312.10395,563.74536 312.52477,563.29117 312.94559,562.83698 C 316.14925,560.13572 319.50153,557.61049 322.76002,554.97357 C 325.75938,552.34004 329.07775,550.10947 331.97139,547.35003 L 328.8769,545.39278 z" />
    <path
       style="opacity:1;fill:#9e9b3c;fill-opacity:1;stroke:#504814;stroke-width:2.76491833;stroke-miterlimit:4;stroke-dasharray:none;stroke-opacity:0.17030568"
       id="path3298"
       d="M 312.61068,529.02237 C 309.60125,532.79635 306.8503,536.77617 303.85273,540.55887 C 302.55824,542.41405 301.03545,544.0829 299.62316,545.84559 L 302.73682,547.70617 C 304.14268,545.93941 305.6535,544.26048 306.94584,542.4052 C 309.95302,538.59423 312.72774,534.59999 315.79638,530.83625 L 312.61068,529.02237 z" />
    <path
       style="opacity:1;fill:#9e9b3c;fill-opacity:1;stroke:#504814;stroke-width:2.76491833;stroke-miterlimit:4;stroke-dasharray:none;stroke-opacity:0.17030568"
       id="path3300"
       d="M 406.0046,559.00708 C 407.84699,563.83778 410.0404,568.53119 412.08691,573.28327 C 414.80994,578.80894 415.3998,584.92052 416.59651,590.86069 C 416.75665,591.57649 416.91677,592.29228 417.07691,593.00808 L 420.33867,594.57943 C 420.17429,593.86413 420.00992,593.14883 419.84554,592.43353 C 418.58346,586.48588 418.07643,580.32621 415.34097,574.77825 C 413.31075,570.04211 411.12912,565.36284 409.32501,560.54274 L 406.0046,559.00708 z" />
    <path
       style="opacity:1;fill:#9e9b3c;fill-opacity:1;stroke:#504814;stroke-width:2.76491833;stroke-miterlimit:4;stroke-dasharray:none;stroke-opacity:0.17030568"
       id="path3302"
       d="M 415.25236,551.39186 C 417.82295,555.53234 419.8496,559.95937 422.04077,564.30004 C 424.13635,568.65233 425.88383,573.14496 427.5751,577.66522 C 428.43513,579.56503 429.18734,581.50344 429.88546,583.46698 L 433.17157,585.00338 C 432.48297,583.03301 431.74344,581.08613 430.85868,579.19308 C 429.16916,574.65756 427.40366,570.15876 425.32611,565.78371 C 423.11675,561.47216 421.15501,557.02991 418.59233,552.90296 L 415.25236,551.39186 z" />
    <path
       style="opacity:1;fill:#9e9b3c;fill-opacity:1;stroke:#504814;stroke-width:2.76491833;stroke-miterlimit:4;stroke-dasharray:none;stroke-opacity:0.17030568"
       id="path3304"
       d="M 432.32768,534.58584 C 435.70722,537.34058 439.24867,539.89472 442.53545,542.76148 C 445.17271,544.90562 447.88268,547.04079 449.88887,549.80956 C 451.8567,551.99269 452.75044,554.76706 453.89038,557.41335 C 454.05183,557.86797 454.21329,558.32261 454.37474,558.77723 L 457.67915,560.32388 C 457.5217,559.86172 457.36428,559.39956 457.20683,558.93739 C 456.07268,556.27574 455.20244,553.45689 453.23202,551.26239 C 451.29319,548.42246 448.55976,546.26606 445.89641,544.12888 C 442.6443,541.23277 439.06992,538.73202 435.73003,535.93889 L 432.32768,534.58584 z" />
    <path
       style="opacity:1;fill:#9e9b3c;fill-opacity:1;stroke:#504814;stroke-width:2.76491833;stroke-miterlimit:4;stroke-dasharray:none;stroke-opacity:0.17030568"
       id="path3306"
       d="M 435.8291,512.54121 C 438.04951,516.22167 441.18676,519.19706 443.9345,522.46433 C 445.47791,524.61172 446.98431,526.77942 448.46691,528.96925 L 451.79658,530.42308 C 450.30502,528.22437 448.78892,526.05124 447.26201,523.87767 C 444.54822,520.60567 441.36143,517.68149 439.19169,513.99027 L 435.8291,512.54121 z" />
    <path
       style="opacity:1;fill:#9e9b3c;fill-opacity:1;stroke:#504814;stroke-width:2.76491833;stroke-miterlimit:4;stroke-dasharray:none;stroke-opacity:0.17030568"
       id="path3308"
       d="M 442.58897,430.69797 C 444.52906,426.68402 446.92078,422.95344 449.3912,419.25558 C 451.70806,416.05797 453.74895,412.68683 455.90998,409.39146 L 452.76511,407.55279 C 450.61931,410.85619 448.58521,414.22938 446.27336,417.42861 C 443.79615,421.15142 441.39105,424.90277 439.39492,428.91432 L 442.58897,430.69797 z" />
    <path
       style="opacity:1;fill:#9e9b3c;fill-opacity:1;stroke:#504814;stroke-width:2.76491833;stroke-miterlimit:4;stroke-dasharray:none;stroke-opacity:0.17030568"
       id="path3310"
       d="M 425.72103,419.56009 C 427.15388,414.78295 428.05644,409.872 429.15698,405.01205 C 430.21298,400.56693 430.70692,396.03072 430.95227,391.47781 C 431.32654,387.91675 430.97401,384.4861 430.26426,381.00605 C 430.1698,380.48436 430.07534,379.96267 429.98087,379.44097 L 426.70588,377.84475 C 426.79874,378.36897 426.89161,378.8932 426.98449,379.41743 C 427.69383,382.87596 428.12345,386.26724 427.7281,389.81375 C 427.49816,394.35126 427.02922,398.8747 425.98658,403.30681 C 424.88912,408.16444 424.00127,413.08194 422.49276,417.8341 L 425.72103,419.56009 z" />
    <path
       style="opacity:1;fill:#9e9b3c;fill-opacity:1;stroke:#504814;stroke-width:2.76491833;stroke-miterlimit:4;stroke-dasharray:none;stroke-opacity:0.17030568"
       id="path3312"
       d="M 404.94431,404.68365 C 404.0955,400.43888 403.73013,396.12198 403.49003,391.80655 C 403.55501,386.91382 402.11858,382.22648 401.098,377.49503 C 400.41012,373.26665 399.16283,369.15328 397.79954,365.10084 C 396.5846,362.17542 394.96166,359.44921 393.66825,356.56552 C 392.84608,353.87539 391.59592,351.36103 389.86735,349.1446 C 389.60192,348.79534 389.33648,348.44608 389.07105,348.0968 L 385.71543,346.65163 C 385.97917,347.00467 386.24292,347.35774 386.50666,347.71078 C 388.29845,349.84926 389.55721,352.37313 390.35213,355.04542 C 391.60223,357.94594 393.26034,360.65179 394.51215,363.55819 C 395.87555,367.60414 397.17202,371.70092 397.85167,375.92601 C 398.84706,380.64391 400.32489,385.30821 400.26125,390.18311 C 400.48426,394.50633 400.86485,398.82453 401.65043,403.08643 L 404.94431,404.68365 z" />
    <path
       style="opacity:1;fill:#9e9b3c;fill-opacity:1;stroke:#504814;stroke-width:2.76491833;stroke-miterlimit:4;stroke-dasharray:none;stroke-opacity:0.17030568"
       id="path3314"
       d="M 388.08232,397.45603 C 385.59619,393.40078 383.11383,389.34195 380.49749,385.36714 C 377.53956,381.6084 375.57678,377.30256 373.81975,372.89423 C 372.70116,368.92552 370.71771,365.3037 368.91366,361.62283 C 367.09175,357.71718 363.89388,354.77912 360.86833,351.80934 C 357.35371,348.82366 353.7514,345.94566 350.02548,343.22875 L 346.66256,341.89682 C 350.38903,344.60742 353.98598,347.47789 357.5261,350.42885 C 360.53509,353.37413 363.76077,356.26983 365.61165,360.12514 C 367.40156,363.80508 369.43609,367.40073 370.5307,371.37179 C 372.27666,375.80453 374.22106,380.15039 377.19699,383.92069 C 379.79892,387.87606 382.26903,391.90975 384.74235,395.94492 L 388.08232,397.45603 z" />
    <path
       style="opacity:1;fill:#9e9b3c;fill-opacity:1;stroke:#504814;stroke-width:2.76491833;stroke-miterlimit:4;stroke-dasharray:none;stroke-opacity:0.17030568"
       id="path3316"
       d="M 365.86423,393.75301 C 363.28765,389.88386 360.49547,386.16428 357.74695,382.41655 C 354.84964,378.04791 351.65082,373.88998 348.44336,369.74684 C 345.967,366.52629 342.61697,364.19488 339.30833,361.91168 L 335.92262,360.58286 C 339.24783,362.82353 342.60352,365.15391 345.1197,368.32219 C 348.36233,372.44078 351.53732,376.62709 354.44586,380.98984 C 357.17763,384.71297 359.91896,388.4287 362.52426,392.24192 L 365.86423,393.75301 z" />
    <path
       style="opacity:1;fill:#9e9b3c;fill-opacity:1;stroke:#504814;stroke-width:2.76491833;stroke-miterlimit:4;stroke-dasharray:none;stroke-opacity:0.17030568"
       id="path3318"
       d="M 333.96454,402.95456 C 330.74336,399.75653 327.81308,396.28473 324.87407,392.82877 C 322.1935,389.19664 319.41626,385.64266 316.78809,381.97254 C 314.4064,378.34727 311.64648,375.07416 308.63674,371.96126 C 305.7196,369.06862 302.67475,366.26786 299.28786,363.93009 C 296.13866,361.83606 298.23092,363.17791 292.89145,360.09751 L 295.71447,362.38066 C 293.7333,361.20142 293.828,361.22674 295.90613,362.60367 C 299.32726,364.88683 302.36133,367.70119 305.29372,370.57049 C 308.30753,373.66989 311.10411,376.90253 313.46849,380.53325 C 316.09883,384.20926 318.88047,387.76486 321.54364,391.41776 C 324.47971,394.86767 327.39793,398.33621 330.58677,401.55544 L 333.96454,402.95456 z" />
    <path
       style="opacity:1;fill:#9e9b3c;fill-opacity:1;stroke:#504814;stroke-width:2.76491833;stroke-miterlimit:4;stroke-dasharray:none;stroke-opacity:0.17030568"
       id="path3320"
       d="M 326.54782,424.96861 C 323.36845,420.18339 319.72936,415.75648 315.94947,411.44021 C 312.42589,407.45128 309.60248,402.93752 306.39953,398.70357 C 305.23299,396.92977 303.88385,395.29259 302.6222,393.58781 L 299.28935,392.14827 C 300.54919,393.86404 301.92957,395.48264 303.08183,397.27625 C 306.30988,401.50894 309.12809,406.04114 312.65077,410.04863 C 316.42383,414.33849 320.08748,418.72505 323.19143,423.53464 L 326.54782,424.96861 z" />
    <path
       style="opacity:1;fill:#9e9b3c;fill-opacity:1;stroke:#504814;stroke-width:2.76491833;stroke-miterlimit:4;stroke-dasharray:none;stroke-opacity:0.17030568"
       id="path3322"
       d="M 319.16478,442.03467 C 315.67745,439.79215 312.54656,437.01541 309.45732,434.26045 C 305.81772,431.01129 301.76031,428.42398 297.54775,425.99799 C 298.16296,426.32296 298.77817,426.64792 299.3934,426.97287 L 295.9969,425.64688 C 297.45828,426.52677 298.91966,427.40665 300.38104,428.28653 C 299.81712,427.94755 299.33867,427.3753 298.68924,427.26961 C 298.13482,427.17939 299.61941,427.90026 300.06984,428.23588 C 302.10742,429.75415 304.17194,431.23164 306.10228,432.89157 C 309.15892,435.66171 312.29805,438.43606 315.76242,440.68161 L 319.16478,442.03467 z" />
    <path
       style="opacity:1;fill:#9e9b3c;fill-opacity:1;stroke:#504814;stroke-width:2.76491833;stroke-miterlimit:4;stroke-dasharray:none;stroke-opacity:0.17030568"
       id="path3324"
       d="M 300.92833,454.15817 C 298.93368,454.55832 296.9142,454.80319 294.89693,455.05298 L 297.85097,457.14378 C 299.88398,456.88911 301.91808,456.63583 303.93179,456.251 L 300.92833,454.15817 z" />
    <path
       style="opacity:1;fill:#9e9b3c;fill-opacity:1;stroke:#504814;stroke-width:2.76491833;stroke-miterlimit:4;stroke-dasharray:none;stroke-opacity:0.17030568"
       id="path3326"
       d="M 301.10428,475.03549 C 298.4141,477.54156 295.45379,479.85139 292.23496,481.64173 C 290.20205,482.44148 288.13126,483.11662 286.07805,483.87316 L 289.10127,485.91009 C 291.16414,485.14469 293.26072,484.48669 295.28293,483.6257 C 298.49983,481.79088 301.45421,479.47025 304.19879,476.99273 L 301.10428,475.03549 z" />
    <path
       style="opacity:1;fill:#9e9b3c;fill-opacity:1;stroke:#504814;stroke-width:2.76491833;stroke-miterlimit:4;stroke-dasharray:none;stroke-opacity:0.17030568"
       id="path3328"
       d="M 312.03739,502.29736 C 308.57044,503.26545 305.51121,505.03425 302.49788,506.93866 C 300.12052,508.81872 297.86248,510.83351 295.57249,512.82199 C 293.30463,515.05007 290.49769,516.5421 288.00313,518.48549 L 291.07723,520.42287 C 293.58346,518.48784 296.38261,516.96895 298.66123,514.74584 C 300.94756,512.77986 303.18633,510.76714 305.5597,508.9092 C 308.53947,507.01711 311.58539,505.27665 315.04085,504.3902 L 312.03739,502.29736 z" />
    <path
       style="opacity:1;fill:#9e9b3c;fill-opacity:1;stroke:#504814;stroke-width:2.76491833;stroke-miterlimit:4;stroke-dasharray:none;stroke-opacity:0.17030568"
       id="path3330"
       d="M 302.97181,489.59721 C 299.58292,491.45178 296.13987,493.2764 292.58259,494.79562 C 290.95409,495.24401 289.43606,495.98813 287.88354,496.63768 L 290.91426,498.6606 C 292.46375,498.00759 293.98926,497.28636 295.60639,496.80954 C 299.16332,495.2569 302.60585,493.42417 306.03427,491.6122 L 302.97181,489.59721 z" />
    <path
       sodipodi:type="arc"
       style="opacity:1;fill:#ffffff;fill-opacity:0.33624453;stroke:none;stroke-width:1.60000002;stroke-miterlimit:4;stroke-dasharray:none;stroke-opacity:0.17030568;filter:url(#filter3486)"
       id="path3332"
       sodipodi:cx="371.78571"
       sodipodi:cy="408.43362"
       sodipodi:rx="37.5"
       sodipodi:ry="60"
       d="M 409.28571,408.43362 A 37.5,60 0 1 1 334.28571,408.43362 A 37.5,60 0 1 1 409.28571,408.43362 z"
       transform="matrix(-1.5676863,0,0,1.0405739,961.63136,61.697744)" />
    <path
       style="fill:#909300;fill-opacity:0.33624453;fill-rule:evenodd;stroke:#5d6027;stroke-width:1.72807395px;stroke-linecap:butt;stroke-linejoin:miter;stroke-opacity:1"
       d="M 426.66269,450.35435 C 426.72024,446.75973 422.3952,440.53232 419.25667,437.39379 C 412.39518,430.5323 418.97026,440.95359 411.85063,437.39379 C 407.10839,435.02267 405.27216,432.25305 400.74158,429.98775 C 400.27357,429.75375 404.99696,445.22772 397.03856,434.61652 C 393.00947,429.2444 387.67344,429.32034 385.00377,429.98775 C 380.78368,431.04278 391.00841,445.39998 382.2265,433.69077 C 380.16774,430.94574 374.93947,429.09175 371.11745,428.13624 C 368.10882,427.38408 364.96115,427.2105 361.85992,427.2105 C 357.70834,427.2105 368.18185,432.60667 371.11745,435.54228 C 373.63526,438.06009 380.66574,437.46648 384.07801,438.31954 C 388.61021,439.45259 393.40886,440.18937 397.03856,441.0968 C 401.84551,442.29853 404.59522,444.60603 409.07337,445.72556 C 412.68349,446.6281 416.40873,447.55941 420.18241,448.50284 C 429.55118,450.84502 405.69454,441.96707 426.66269,450.35435 z"
       id="path3490" />
    <path
       style="fill:#909300;fill-opacity:0.33624453;fill-rule:evenodd;stroke:#65650a;stroke-width:1.72807395px;stroke-linecap:butt;stroke-linejoin:miter;stroke-opacity:1"
       d="M 328.53279,446.65133 C 331.32077,447.34833 339.2455,443.60935 342.41909,442.02256 C 346.54416,439.96002 350.68676,439.74022 353.52813,438.31954 C 356.91001,436.6286 348.19941,427.82014 347.04785,426.28473 C 345.37124,424.04926 348.62146,435.86619 346.12211,434.61652 C 340.28657,431.69875 340.01164,434.06303 338.71607,439.24529 C 338.16657,441.44329 328.88466,441.38374 327.60702,442.02256 C 327.20267,442.22473 324.81373,446.65935 321.12674,448.50284"
       id="path3492" />
    <path
       style="fill:none;fill-rule:evenodd;stroke:#8e983c;stroke-width:3.128;stroke-linecap:butt;stroke-linejoin:miter;stroke-opacity:1;stroke-miterlimit:4;stroke-dasharray:none"
       d="M 355.21499,451.57679 C 356.04549,455.01285 353.69126,465.09798 351.28736,469.90578 C 347.92181,476.63688 351.28736,482.29605 351.28736,488.23478 C 351.28736,490.54966 361.58211,496.28315 363.07028,497.39928 C 366.30003,499.82159 368.64921,499.1213 372.23477,500.01771"
       id="path3494" />
    <path
       style="fill:none;fill-rule:evenodd;stroke:#6b662f;stroke-width:2.628;stroke-linecap:butt;stroke-linejoin:miter;stroke-opacity:1;stroke-miterlimit:4;stroke-dasharray:none"
       d="M 386.63613,526.20197 C 382.29819,527.23059 372.27016,523.58355 364.37949,523.58355 C 360.26933,523.58355 354.78126,520.74825 352.59658,519.6559"
       id="path3496" />
    <path
       sodipodi:type="arc"
       style="opacity:1;fill:#a09d38;fill-opacity:1;stroke:none;stroke-width:1.60000002;stroke-miterlimit:4;stroke-dasharray:none;stroke-opacity:1"
       id="path3498"
       sodipodi:cx="361.07144"
       sodipodi:cy="388.34433"
       sodipodi:rx="9.1071424"
       sodipodi:ry="1.3392857"
       d="M 370.17858,388.34433 A 9.1071424,1.3392857 0 1 1 351.9643,388.34433 A 9.1071424,1.3392857 0 1 1 370.17858,388.34433 z"
       transform="matrix(-1.7280739,0,0,1.7280739,1016.3679,-217.49323)" />
    <path
       sodipodi:type="arc"
       style="opacity:1;fill:#a09d38;fill-opacity:1;stroke:none;stroke-width:1.60000002;stroke-miterlimit:4;stroke-dasharray:none;stroke-opacity:1"
       id="path3500"
       sodipodi:cx="361.07144"
       sodipodi:cy="388.34433"
       sodipodi:rx="9.1071424"
       sodipodi:ry="1.3392857"
       d="M 370.17858,388.34433 A 9.1071424,1.3392857 0 1 1 351.9643,388.34433 A 9.1071424,1.3392857 0 1 1 370.17858,388.34433 z"
       transform="matrix(-0.9374115,0,0,1.7280739,679.94077,-211.65564)" />
    <rect
       style="opacity:1;fill:#ffffff;fill-opacity:0.441048"
       id="rect4214"
       width="660"
       height="161.42856"
       x="46.785721"
       y="671.2193"
       ry="10.469877"
       inkscape:export-filename="/home/tommy/Desktop/Diddle/data/cutscene1-2.png"
       inkscape:export-xdpi="38.115704"
       inkscape:export-ydpi="38.115704" />
    <text
       xml:space="preserve"
       style="font-size:36.6322937px;font-style:normal;font-weight:normal;fill:#000000;fill-opacity:1;stroke:none;stroke-width:1px;stroke-linecap:butt;stroke-linejoin:miter;stroke-opacity:1;font-family:Bitstream Vera Sans"
       x="60.189102"
       y="708.66064"
       id="text4180"
       inkscape:export-filename="/home/tommy/Desktop/Diddle/data/cutscene1-2.png"
       inkscape:export-xdpi="38.115704"
       inkscape:export-ydpi="38.115704"><tspan
         sodipodi:role="line"
         x="60.189102"
         y="708.66064"
         style="fill:#000000;fill-opacity:1"
         id="tspan4391">I am the Great Giant. I will give</tspan><tspan
         sodipodi:role="line"
         x="60.189102"
         y="754.45099"
         style="fill:#000000;fill-opacity:1"
         id="tspan3840">you a prize if you can defeat 15</tspan><tspan
         sodipodi:role="line"
         x="60.189102"
         y="800.24139"
         style="fill:#000000;fill-opacity:1"
         id="tspan3842">robots without passing out.</tspan></text>
    <path
       style="fill:#ffffff;fill-opacity:0.18777293;fill-rule:evenodd;stroke:none;stroke-width:0.77899998000000004;stroke-linecap:butt;stroke-linejoin:miter;stroke-miterlimit:4;stroke-dasharray:none;stroke-opacity:1;filter:url(#filter3727)"
       d="M 338.9375,349.90625 C 345.77887,356.29782 353.20614,366.95333 347.84375,376.4375 C 341.63544,385.55786 328.61747,383.70414 320.03242,379.36763 C 313.56956,377.28117 306.45636,372.96908 300.875,371.1875 C 304.48158,379.09914 300.6132,388.94028 292.84375,392.59375 C 291.84126,395.21742 296.92988,396.46902 297.5,398.90625 C 303.83082,406.45088 307.88123,418.20904 302.0625,427.03125 C 303.71713,428.09096 304.92012,430.72648 305.625,431.78125 C 309.17712,429.43008 313.64112,429.61407 317.71875,429.15625 C 316.70814,421.0902 319.67958,411.06043 328.5625,409.0625 C 335.81115,406.85139 342.8209,403.02718 350.21875,401.84375 C 353.49865,401.53989 356.62757,407.45203 358.5625,402.875 C 364.52964,394.30988 373.26449,383.75607 385.03125,386.3125 C 396.16084,388.35896 401.2318,399.65578 409.21875,406.21875 C 418.48054,405.96792 430.40331,410.89794 430.6875,421.4375 C 433.24856,425.15891 439.217,423.84843 442.78125,426.5 C 445.94694,427.78628 448.98618,429.38589 451.625,431.5 C 453.7272,427.04494 456.37431,420.89485 451.625,417.15625 C 446.22933,409.51475 442.71158,400.63541 435.375,394.53125 C 433.50065,392.74382 432.07581,389.65163 430.375,388.28125 C 422.8878,391.90145 413.83312,386.60977 411.40625,379.15625 C 408.69847,375.35771 405.26478,371.90437 401.71875,369.0625 C 396.28408,376.53027 384.90969,375.4412 378.96875,369.1875 C 370.9217,362.25065 363.66286,353.48333 352.50494,351.63966 C 347.60029,350.1689 342.54713,349.30234 337.5,348.46875 C 337.97917,348.94792 338.45833,349.42708 338.9375,349.90625 z M 304.875,457.125 C 302.79531,459.36761 298.70092,461.70203 300.09375,465.28125 C 301.32936,462.23628 305.23308,460.513 307.125,458.96875 C 306.57592,458.46486 305.48579,456.10348 304.875,457.125 z M 299.1875,482.65625 C 298.70348,487.0061 295.72075,491.0221 295.0625,495 C 297.85291,503.25056 302.1185,512.95205 297.1875,521.21875 C 298.22848,530.80938 309.37979,536.2432 309.59375,546.25 C 311.05312,552.59034 309.7897,559.45027 309.125,565.5 C 314.5368,566.83649 319.48625,570.05675 322.375,574.875 C 306.6901,596.57631 278.21629,603.076 252.78443,604.861 C 228.64799,607.01409 204.08226,598.70372 180.3125,604.8125 C 175.88547,613.08261 164.71362,610.65865 157.375,608.65625 C 148.27137,606.2969 139.52521,600.8059 131.5,597.4375 C 130.08496,604.46781 123.64052,609.31733 117,611.0625 C 121.69472,612.70958 123.48717,619.75374 118.3125,622.03125 C 116.56264,623.14932 113.86457,623.54428 116.5625,625.4375 C 120.42992,630.0779 117.7571,637.52765 112,638.90625 C 113.74705,640.73917 112.20165,645.00558 116.0625,643.84375 C 126.21987,645.79748 136.3371,644.03304 146.13326,641.69763 C 159.79472,639.85648 173.75896,637.95018 187.5625,638.96875 C 191.75412,639.36796 193.47397,645.36381 197.83275,643.35211 C 222.21241,640.39384 245.00751,629.74321 269.55638,627.57707 C 284.6521,626.15916 299.86292,626.12848 315,626.875 C 310.99109,652.05233 317.82365,677.28001 320.78738,702.16857 C 323.61445,714.54782 323.59111,727.32835 324.625,739.875 C 327.48506,747.80243 334.86399,753.04674 338.84375,760.40625 C 343.66228,766.59964 352.27573,764.10737 358.99346,765.59913 C 382.744,766.99024 406.58974,765.98995 430.3381,765.41224 C 440.13527,764.55134 450.61277,764.18285 459.46875,759.90625 C 467.14857,751.42035 466.2224,738.93315 467.34375,728.34375 C 465.38385,715.01326 457.25487,703.55676 453.34375,690.75 C 448.47235,677.39393 445.21483,663.32098 441.0625,649.78125 C 439.23426,638.79286 439.30821,627.56929 437.96875,616.5625 C 437.64138,608.86912 435.79813,599.47198 441.5625,593.46875 C 440.48321,584.52956 446.04521,576.69764 449.46693,569.05506 C 450.44119,563.95528 453.24181,558.87577 456.21875,555.09375 C 451.57641,548.6704 449.2922,539.92515 446.5,533.4375 C 443.41102,538.69614 436.85839,541.18958 431.625,542.21875 C 431.02033,549.45268 427.2612,557.01528 420.34375,560.0625 C 418.26514,570.21756 407.48925,577.31858 397.3125,574.84375 C 383.48839,575.04358 369.40414,584.05557 355.6875,577.65625 C 348.95044,575.08942 343.07742,569.19166 342.25,561.75 C 334.58212,560.59379 328.59819,554.40524 323.375,549.0625 C 317.31172,541.23402 307.67817,534.58941 307.375,523.75 C 307.09903,520.65556 308.3368,517.53078 304.71875,516.21875 C 297.37387,510.40828 297.23236,497.28087 305.1875,492.5625 C 302.76194,489.56806 300.57535,486.0532 299.1875,482.65625 z"
       id="path3694" />
  </g>
</svg>
